PathFileType	4	(X/Y/Z)	Patient4_TMGait_0pt4_01_right_16.trc.trc
DataRate	CameraRate	NumFrames	NumMarkers	Units	OrigDataRate	OrigDataStartFrame	OrigNumFrames
75.675675675676	75.675675675676	4	33	mm	75.675675675676	89	       141
Frame#	Time	Sacral			L.Shoulder			Chest			R.Shoulder			Neck			R.ASIS			L.ASIS			R.Thigh.Superior			R.Thigh.Lateral			R.Thigh.Inferior			R.Patella			L.Thigh.Superior			L.Thigh.Lateral			L.Thigh.Inferior			L.Patella			L.Shank.Superior			L.Shank.Lateral			L.Shank.Inferior			R.Shank.Superior			R.Shank.Lateral			R.Shank.Inferior			R.Heel			R.Midfoot.Superior			R.Midfoot.Lateral			R.Toe			L.Heel			L.Midfoot.Lateral			L.Midfoot.Superior			L.Toe			L.Elbow			L.Wrist			R.Elbow			R.Wrist			
		X1	Y1	Z1	X2	Y2	Z2	X3	Y3	Z3	X4	Y4	Z4	X5	Y5	Z5	X6	Y6	Z6	X7	Y7	Z7	X8	Y8	Z8	X9	Y9	Z9	X10	Y10	Z10	X11	Y11	Z11	X12	Y12	Z12	X13	Y13	Z13	X14	Y14	Z14	X15	Y15	Z15	X16	Y16	Z16	X17	Y17	Z17	X18	Y18	Z18	X19	Y19	Z19	X20	Y20	Z20	X21	Y21	Z21	X22	Y22	Z22	X23	Y23	Z23	X24	Y24	Z24	X25	Y25	Z25	X26	Y26	Z26	X27	Y27	Z27	X28	Y28	Z28	X29	Y29	Z29	X30	Y30	Z30	X31	Y31	Z31	X32	Y32	Z32	X33	Y33	Z33	

89	21.792857142857	702.184939401849	1009.613310560209	378.206646043289	861.286077758254	1436.511459735235	182.213144479395	986.907005262874	1365.400289512215	324.828536086176	932.448969578216	1438.889589862773	510.750989480539	871.114788674703	1496.215774602644	346.320974700169	938.502361664036	941.253976248828	470.111797832355	898.667747449351	962.464422397389	199.864509993483	959.545953115159	733.325949311637	454.837585909381	874.143225620050	633.162386302568	531.318595630146	944.903312764365	567.544574205550	455.105482476114	935.545425613617	467.030998990983	477.142628379882	961.244159033331	759.573071130021	223.912265378023	878.803119897766	636.055065958012	169.747606102152	977.178334250865	565.935393432414	221.106097090337	984.195190252011	495.221221571657	228.804759253216	957.256717927776	421.353900394528	224.213374757079	865.002875895297	305.426915818864	182.344387129759	925.026556759914	195.032944877695	247.348788582838	870.903403994110	394.566631155730	488.289964183238	764.901618828001	333.457770759909	558.044159041416	767.955094574311	223.455937532475	506.298605844786	580.700188328367	109.423369231981	490.378043280656	760.454289269675	107.177545955131	519.606243231465	659.468845832784	71.799168479132	559.469378300802	857.979605300677	33.926669757023	540.781101827326	803.176512914439	38.570364194937	299.740689611454	870.352511690341	35.012674806863	213.394218734593	956.313117090033	96.179276280683	232.709886752515	1081.904917800952	41.656063168232	194.984202715586	776.697464953640	1095.598002654048	64.983490718984	897.064984360182	867.813682916239	11.210216567420	956.331820295122	1089.797985153147	626.428082097354	1086.415778995865	864.695005297312	599.619365770534	
90	21.806071428571	700.949678634813	1009.839324621056	373.921226868613	862.057095290401	1436.642420598318	177.887380879225	986.292791941530	1365.684056549452	321.720260412380	930.143066973636	1439.292998131087	507.080674728103	870.202296118216	1496.469603274621	342.135420310342	936.565560414309	941.914503060265	467.602236880113	898.532442567792	962.321267967322	197.012718183716	962.264232972612	735.391993702341	452.929264968483	879.101954008703	633.676630072326	529.348243700989	952.075740854012	569.100026679745	453.738069927695	943.861272932973	467.236127375955	476.714131829274	959.434642715018	758.631928653904	220.498644067445	875.633546528903	635.909036691527	167.018920581051	973.377123627575	565.152614765808	218.350313568473	979.773392394156	494.605343498194	226.250745195831	952.685664889035	420.791889041288	221.974108289477	859.872202528031	304.957837882710	180.612074645336	919.829438524853	194.757865878934	246.253598435526	877.301196523250	395.546389542060	487.506577466701	769.292429125945	337.722544616177	556.894135433984	769.988300105617	227.318437859846	506.041658445410	579.990312040783	119.563904018196	489.879291004765	759.432738366616	110.344545132511	520.042336644246	656.910389182799	78.667120376540	559.089633353791	853.309383705268	33.159675362661	541.005550130467	797.796546427968	38.474368463976	299.587895534358	864.953834267875	34.838806362232	213.149310182823	950.901124694300	96.033843038640	232.421967034046	1076.568241671098	41.682129336393	194.937216322319	779.342892947953	1095.890304295770	58.740022361134	905.122900330785	870.746579129861	5.926446310017	946.073813560327	1090.086899882726	623.774240084877	1066.847182453664	859.043536348819	603.498105901246	
91	21.819285714286	699.525731038072	1009.980342926881	369.901287686344	862.833863640284	1436.546015851869	173.640594419440	985.603147583254	1365.832464688148	318.786177145180	927.702523462179	1439.712444816655	503.491836890162	869.281596701552	1496.636238865764	337.972721195355	934.518022334522	942.521256218695	465.336598987337	898.197468526186	962.183913701381	194.384098692449	965.195569261340	737.749027209153	451.046849672505	884.651303704475	634.319581757355	527.421518289629	959.835932391348	570.997576654007	452.349176316752	952.869738858924	467.813272234461	476.137924479603	957.447585717018	757.734847794481	217.315715553165	872.373873810217	635.793685290334	164.469788403973	969.497316934927	564.418627149219	215.812912292613	975.287567549389	494.029244927678	223.900699721908	948.073675150748	420.280511079590	219.914165981094	854.759293411822	304.538134192471	178.996384005365	914.629014202444	194.506371022211	245.235382820721	884.467359118541	396.779095428115	486.570216167617	774.562579113176	342.291897852017	555.638711111543	772.665133496709	231.634525761610	505.559157458810	580.054813529810	130.567477335199	489.162466307475	758.946594719052	114.201338328313	520.309689023671	654.946945569238	86.398111359896	558.523509458789	848.956980257181	32.427281319973	541.097619918581	792.433571337121	38.399958252060	299.436572636024	859.574007681387	34.695473316702	212.919516746465	945.508111825319	95.903276143213	232.151358979663	1071.238294553413	41.715865715565	194.879294317286	782.310363082696	1095.989421616879	52.426486369556	913.056300319102	873.381204953421	0.675564847089	935.289777180057	1090.645489703916	621.400908005947	1046.904301421723	854.503184883371	607.385193732219	
92	21.832500000000	697.928373499872	1010.053125149050	366.166824039479	863.577358693185	1436.236459101847	169.503154800533	984.816947516127	1365.877578703843	316.042861960969	925.123691215670	1440.179402610656	500.002790914233	868.340484489050	1496.734855732739	333.856616105825	932.388370510642	943.087590140729	463.309270558313	897.675172904399	962.080505818461	191.983227377336	968.239585194517	740.403256037426	449.132731678880	890.660384404141	635.158709419854	525.517998413011	967.976233579095	573.275705296718	450.887655725390	962.391143693248	468.820358972602	475.362008776170	955.307699966999	756.896129026924	214.395161334226	869.045871480900	635.706495004297	162.143074812630	965.567796564952	563.733175833511	213.534792367386	970.768642072177	493.494531514465	221.811888356967	943.448143681961	419.823747924953	218.080257304309	849.696691464495	304.176023601859	177.539307200193	909.442562074043	194.280268916707	244.324802826272	892.251274537053	398.303635628039	485.449935315404	780.597532338862	347.122822161968	554.255596653355	775.942162544574	236.371559254039	504.816966519410	580.913480630040	142.207975815884	488.233319478647	759.039492761482	118.715974820648	520.319695749146	653.676381539787	94.838953294009	557.738093245500	845.061341951049	31.853303644186	540.931463877455	787.088990458754	38.348525990975	299.291821496058	854.214728176438	34.585906035856	212.712929392491	940.136726916949	95.790127145250	231.908031866066	1065.916282371844	41.749542918651	194.810620445370	785.645730060215	1095.899166833829	46.078170414874	920.867085637813	875.670114763853	-4.515419608777	924.090857646767	1091.534651936919	619.337693580219	1026.754639427013	851.065216809824	611.188523329919	
